<?xml version="1.0" encoding="UTF-8" standalone="no"?>
<!-- Created with Inkscape (http://www.inkscape.org/) -->

<svg
   xmlns:dc="http://purl.org/dc/elements/1.1/"
   xmlns:cc="http://creativecommons.org/ns#"
   xmlns:rdf="http://www.w3.org/1999/02/22-rdf-syntax-ns#"
   xmlns:svg="http://www.w3.org/2000/svg"
   xmlns="http://www.w3.org/2000/svg"
   xmlns:sodipodi="http://sodipodi.sourceforge.net/DTD/sodipodi-0.dtd"
   xmlns:inkscape="http://www.inkscape.org/namespaces/inkscape"
   width="300"
   height="300"
   viewBox="0 0 300 300"
   id="svg2"
   version="1.1"
   inkscape:version="0.91 r13725"
   sodipodi:docname="beanzooka_redux.svg">
  <title
     id="title5829">Beanzooka Redux</title>
  <defs
     id="defs4" />
  <sodipodi:namedview
     id="base"
     pagecolor="#ffffff"
     bordercolor="#666666"
     borderopacity="1.0"
     inkscape:pageopacity="0.0"
     inkscape:pageshadow="2"
     inkscape:zoom="1.4"
     inkscape:cx="-181.57935"
     inkscape:cy="231.02795"
     inkscape:document-units="px"
     inkscape:current-layer="layer1"
     showgrid="false"
     units="px"
     inkscape:window-width="1920"
     inkscape:window-height="1017"
     inkscape:window-x="1072"
     inkscape:window-y="417"
     inkscape:window-maximized="1" />
  <metadata
     id="metadata7">
    <rdf:RDF>
      <cc:Work
         rdf:about="">
        <dc:format>image/svg+xml</dc:format>
        <dc:type
           rdf:resource="http://purl.org/dc/dcmitype/StillImage" />
        <dc:title>Beanzooka Redux</dc:title>
        <dc:creator>
          <cc:Agent>
            <dc:title>Demortier Jeremy</dc:title>
          </cc:Agent>
        </dc:creator>
        <cc:license
           rdf:resource="http://creativecommons.org/publicdomain/zero/1.0/" />
      </cc:Work>
      <cc:License
         rdf:about="http://creativecommons.org/publicdomain/zero/1.0/">
        <cc:permits
           rdf:resource="http://creativecommons.org/ns#Reproduction" />
        <cc:permits
           rdf:resource="http://creativecommons.org/ns#Distribution" />
        <cc:permits
           rdf:resource="http://creativecommons.org/ns#DerivativeWorks" />
      </cc:License>
    </rdf:RDF>
  </metadata>
  <g
     inkscape:label="Layer 1"
     inkscape:groupmode="layer"
     id="layer1"
     transform="translate(0,-752.36216)">
    <g
       id="g4395"
       transform="matrix(1.4351813,-1.4351813,1.4351813,1.4351813,-191.66549,811.23661)">
      <path
         style="fill:#4682b4;stroke:#000000;stroke-width:1"
         inkscape:connector-curvature="0"
         d="m 10,130 15,-1 2,6 0,30 -1,2 -14,0 z"
         id="path4140" />
      <path
         style="fill:#ffffff;fill-opacity:0.95"
         inkscape:connector-curvature="0"
         d="m 10,130 15,-1 2,6 0,5 -4,-6 -12.9,-0.5 z"
         id="path4142" />
      <path
         style="fill:#000000;fill-opacity:0.4"
         inkscape:connector-curvature="0"
         d="m 11,155 a 15,10 0 0 0 16,-3 l 0,13 -1,2 -14,0 z"
         id="path4144" />
      <path
         style="fill:#4682b4;stroke:#000000;stroke-width:1"
         inkscape:connector-curvature="0"
         d="m 27,135 110,-1 4,34 -114,-3 z"
         id="path4146" />
      <path
         style="fill:#ffffff;fill-opacity:0.95"
         inkscape:connector-curvature="0"
         d="m 27,135 8,0 0,4.5 -8,-0.4 z m 0,0 m 13,0 3.5,4.5 70,-1 0,-4.5 z m -13,0 m 90,-0.7 3.5,4.5 18,-0.5 -1,-4"
         id="path4148" />
      <path
         style="fill:#000000;fill-opacity:0.4"
         inkscape:connector-curvature="0"
         d="m 35,153 -6,-0.4 c -1,0 -1,0 -2,-5 l 0,17.5 8,0 z m 5,-3 c 0.5,0 0.5,4 4,5 l 92,2 1.1,-18 4,29 -103,-3 z"
         id="path4150" />
      <path
         style="fill:#4682b4;stroke:#000000;stroke-width:1"
         inkscape:connector-curvature="0"
         d="m 137,134 0,-5 20,0 2,48 -16,-1 -2,-8 z"
         id="path4152" />
      <path
         style="fill:#000000;fill-opacity:0.4"
         inkscape:connector-curvature="0"
         d="m 139.5,155 c 4,3 5,4 18.5,3 l 1,19 -16,-1 -2,-8 z"
         id="path4154" />
      <path
         style="fill:#ffffff;fill-opacity:0.95"
         inkscape:connector-curvature="0"
         d="m 137,129 3.5,4.5 17.5,-0.2 0,-4.5 z"
         id="path4156" />
      <path
         style="fill:#808080;stroke:#000000;stroke-width:1"
         inkscape:connector-curvature="0"
         d="m 27,135 m 8,0 0,30.2 5,0.1 0,-30.3 z"
         id="path4158" />
      <path
         style="fill:#808080;stroke:#000000;stroke-width:1"
         inkscape:connector-curvature="0"
         d="m 27,135 m 85,-0.7 -0.3,32.85 6.5,0.2 -1.8,-32.95 z"
         id="path4160" />
      <path
         style="fill:#ffffff;fill-opacity:0.95"
         inkscape:connector-curvature="0"
         d="m 27,135 m 8,0 0,4.5 5,0.1 0,-4.5 z m -8,0 m 85,-0.7 -0.1,4.2 5,-0.1 -0.5,-4.1 z"
         id="path4162" />
      <path
         style="fill:#000000;fill-opacity:0.4"
         inkscape:connector-curvature="0"
         d="m 27,135 m 8,8 0,22.2 5,0.1 0,-22.3 z m -8,-8 m 85,7.3 -0.3,24.85 6.5,0.2 -1.8,-24.35 z"
         id="path4164" />
      <path
         style="fill:#2f4f4f;stroke:#000000;stroke-width:1"
         inkscape:connector-curvature="0"
         d="m 44,165.5 -5,23 15,2 3,-24.4 z"
         id="path4166" />
      <path
         style="fill:#000000;fill-opacity:0.4"
         inkscape:connector-curvature="0"
         d="m 44,165.5 -1.7,8 14.5,-5 0.3,-3"
         id="path4168" />
      <path
         style="fill:#2f4f4f;stroke:#000000;stroke-width:1"
         inkscape:connector-curvature="0"
         d="m 72,166.2 0,15 7,-0.1 1,-1 -2,-13.7 z"
         id="path4170" />
      <path
         style="fill:#000000;fill-opacity:0.4"
         inkscape:connector-curvature="0"
         d="m 72,166.2 0,5 6.5,-0.8 -0.5,-4 z"
         id="path4172" />
      <path
         style="fill:#696969;stroke:#000000;stroke-width:1"
         inkscape:connector-curvature="0"
         d="m 27,135 m 20,-0.4 0,-5 35,0 0,4.8 z"
         id="path4174" />
      <path
         style="fill:#000000;fill-opacity:0.4"
         inkscape:connector-curvature="0"
         d="m 27,135 m 20,-0.4 0,-5 35,0 0,4.8 z"
         id="path4176" />
      <path
         style="fill:#4682b4;stroke:#000000;stroke-width:1"
         inkscape:connector-curvature="0"
         d="m 27,135 m 20,-5.4 0,-7 35,0 0,7 z"
         id="path4178" />
      <path
         style="fill:#4682b4;stroke:#000000;stroke-width:1"
         inkscape:connector-curvature="0"
         d="m 27,135 m 20,-5.4 -0.5,1 -5,0.2 -0.4,-10 4.8,-0.2 1.2,0.7 z"
         id="path4180" />
      <path
         style="fill:#4682b4;stroke:#000000;stroke-width:1"
         inkscape:connector-curvature="0"
         d="m 27,135 m 55,-5.4 1,1 5,0.8 0.1,-11 -3.2,-0.3 -3,1 z"
         id="path4182" />
      <path
         style="fill:#ffffff;fill-opacity:0.95"
         inkscape:connector-curvature="0"
         d="m 41,121 4.8,-0.2 1.2,0.7 0,1 35,0 0,-1 3,-1 3.2,0.3 0,2 -3.2,-0.3 -3,1 0,1 -35,0 0,-1 -1.2,-0.7 -4.8,0 z"
         id="path4184" />
      <path
         style="fill:none;stroke:#000000;stroke-width:2"
         inkscape:connector-curvature="0"
         d="m 10,130 15,-1 2,6 0,30 -1,2 -14,0 z"
         stroke-linejoin="Round"
         id="path4186" />
      <path
         style="fill:none;stroke:#000000;stroke-width:2"
         inkscape:connector-curvature="0"
         d="m 27,135 110,-1 4,34 -114,-3 z"
         stroke-linejoin="Round"
         id="path4188" />
      <path
         style="fill:none;stroke:#000000;stroke-width:2"
         inkscape:connector-curvature="0"
         d="m 137,134 0,-5 20,0 2,48 -16,-1 -2,-8 z"
         id="path4190" />
      <path
         style="fill:none;stroke:#000000;stroke-width:1"
         inkscape:connector-curvature="0"
         d="m 27,135 m 8,0 0,30.2 5,0.1 0,-30.3 z"
         id="path4192" />
      <path
         style="fill:none;stroke:#000000;stroke-width:1"
         inkscape:connector-curvature="0"
         d="m 27,135 m 85,-0.7 -0.3,32.85 6.5,0.2 -1.8,-32.95 z"
         id="path4194" />
      <path
         style="fill:none;stroke:#000000;stroke-width:2"
         inkscape:connector-curvature="0"
         d="m 44,165.5 -5,23 15,2 3,-24.4 z"
         stroke-linejoin="Round"
         id="path4196" />
      <path
         style="fill:none;stroke:#000000;stroke-width:2"
         inkscape:connector-curvature="0"
         d="m 72,166.2 0,15 7,-0.1 1,-1 -2,-13.7 z"
         stroke-linejoin="Round"
         id="path4198" />
      <path
         style="fill:none;stroke:#000000;stroke-width:1.20000005"
         inkscape:connector-curvature="0"
         d="m 27,135 m 20,-5.4 0,-7 35,0 0,7 z"
         stroke-linejoin="Round"
         id="path4200" />
      <path
         style="fill:none;stroke:#000000;stroke-width:1.39999998"
         inkscape:connector-curvature="0"
         d="m 27,135 m 20,-5.4 -0.5,1 -5,0.2 -0.4,-10 4.8,-0.2 1.2,0.7 z"
         stroke-linejoin="Round"
         id="path4202" />
      <path
         style="fill:none;stroke:#000000;stroke-width:1.39999998"
         inkscape:connector-curvature="0"
         d="m 27,135 m 55,-5.4 1,1 5,0.8 0.1,-11 -3.2,-0.3 -3,1 z"
         stroke-linejoin="Round"
         id="path4204" />
      <path
         style="fill:none;stroke:#000000;stroke-width:2"
         inkscape:connector-curvature="0"
         d="m 56,173.5 8,0.3 a 5,5 0 0 0 2,-4 l 0,-3.5 m -6,-0.5 a 3,3 0 0 0 -0.2,2 3,3 0 0 0 1,2"
         stroke-linecap="Round"
         id="path4206" />
    </g>
  </g>
</svg>
