<?xml version="1.0" encoding="UTF-8" standalone="no"?>
<!-- Created with Inkscape (http://www.inkscape.org/) -->

<svg
   xmlns:dc="http://purl.org/dc/elements/1.1/"
   xmlns:cc="http://creativecommons.org/ns#"
   xmlns:rdf="http://www.w3.org/1999/02/22-rdf-syntax-ns#"
   xmlns:svg="http://www.w3.org/2000/svg"
   xmlns="http://www.w3.org/2000/svg"
   xmlns:sodipodi="http://sodipodi.sourceforge.net/DTD/sodipodi-0.dtd"
   xmlns:inkscape="http://www.inkscape.org/namespaces/inkscape"
   width="300"
   height="300"
   viewBox="0 0 300 300"
   id="svg2"
   version="1.1"
   inkscape:version="0.91 r13725"
   sodipodi:docname="beanzooka.svg">
  <title
     id="title5247">Beanzooka Logo</title>
  <defs
     id="defs4" />
  <sodipodi:namedview
     id="base"
     pagecolor="#ffffff"
     bordercolor="#666666"
     borderopacity="1.0"
     inkscape:pageopacity="0.0"
     inkscape:pageshadow="2"
     inkscape:zoom="1.979899"
     inkscape:cx="87.767168"
     inkscape:cy="53.509603"
     inkscape:document-units="px"
     inkscape:current-layer="layer1"
     showgrid="false"
     units="px"
     inkscape:window-width="1920"
     inkscape:window-height="1017"
     inkscape:window-x="1072"
     inkscape:window-y="417"
     inkscape:window-maximized="1" />
  <metadata
     id="metadata7">
    <rdf:RDF>
      <cc:Work
         rdf:about="">
        <dc:format>image/svg+xml</dc:format>
        <dc:type
           rdf:resource="http://purl.org/dc/dcmitype/StillImage" />
        <dc:title>Beanzooka Logo</dc:title>
        <dc:creator>
          <cc:Agent>
            <dc:title>Demortier Jeremy</dc:title>
          </cc:Agent>
        </dc:creator>
        <cc:license
           rdf:resource="http://creativecommons.org/publicdomain/zero/1.0/" />
      </cc:Work>
      <cc:License
         rdf:about="http://creativecommons.org/publicdomain/zero/1.0/">
        <cc:permits
           rdf:resource="http://creativecommons.org/ns#Reproduction" />
        <cc:permits
           rdf:resource="http://creativecommons.org/ns#Distribution" />
        <cc:permits
           rdf:resource="http://creativecommons.org/ns#DerivativeWorks" />
      </cc:License>
    </rdf:RDF>
  </metadata>
  <g
     inkscape:label="Layer 1"
     inkscape:groupmode="layer"
     id="layer1"
     transform="translate(0,-752.36216)">
    <g
       id="g4310">
      <g
         transform="translate(15.775922,725.74181)"
         id="g4244"
         style="overflow:visible">
        <svg
           inkscape:version="0.91 r13725"
           width="300"
           height="300"
           id="svg4138"
           version="1.1">
          <path
             style="fill:#4682b4;stroke:#000000;stroke-width:1"
             inkscape:connector-curvature="0"
             d="m 10,130 15,-1 2,6 0,30 -1,2 -14,0 z"
             id="path4140" />
          <path
             style="fill:#ffffff;fill-opacity:0.95"
             inkscape:connector-curvature="0"
             d="m 10,130 15,-1 2,6 0,5 -4,-6 -12.9,-0.5 z"
             id="path4142" />
          <path
             style="fill:#000000;fill-opacity:0.4"
             inkscape:connector-curvature="0"
             d="m 11,155 a 15,10 0 0 0 16,-3 l 0,13 -1,2 -14,0 z"
             id="path4144" />
          <path
             style="fill:#4682b4;stroke:#000000;stroke-width:1"
             inkscape:connector-curvature="0"
             d="m 27,135 110,-1 4,34 -114,-3 z"
             id="path4146" />
          <path
             style="fill:#ffffff;fill-opacity:0.95"
             inkscape:connector-curvature="0"
             d="m 27,135 8,0 0,4.5 -8,-0.4 z m 0,0 m 13,0 3.5,4.5 70,-1 0,-4.5 z m -13,0 m 90,-0.7 3.5,4.5 18,-0.5 -1,-4"
             id="path4148" />
          <path
             style="fill:#000000;fill-opacity:0.4"
             inkscape:connector-curvature="0"
             d="m 35,153 -6,-0.4 c -1,0 -1,0 -2,-5 l 0,17.5 8,0 z m 5,-3 c 0.5,0 0.5,4 4,5 l 92,2 1.1,-18 4,29 -103,-3 z"
             id="path4150" />
          <path
             style="fill:#4682b4;stroke:#000000;stroke-width:1"
             inkscape:connector-curvature="0"
             d="m 137,134 0,-5 20,0 2,48 -16,-1 -2,-8 z"
             id="path4152" />
          <path
             style="fill:#000000;fill-opacity:0.4"
             inkscape:connector-curvature="0"
             d="m 139.5,155 c 4,3 5,4 18.5,3 l 1,19 -16,-1 -2,-8 z"
             id="path4154" />
          <path
             style="fill:#ffffff;fill-opacity:0.95"
             inkscape:connector-curvature="0"
             d="m 137,129 3.5,4.5 17.5,-0.2 0,-4.5 z"
             id="path4156" />
          <path
             style="fill:#808080;stroke:#000000;stroke-width:1"
             inkscape:connector-curvature="0"
             d="m 27,135 m 8,0 0,30.2 5,0.1 0,-30.3 z"
             id="path4158" />
          <path
             style="fill:#808080;stroke:#000000;stroke-width:1"
             inkscape:connector-curvature="0"
             d="m 27,135 m 85,-0.7 -0.3,32.85 6.5,0.2 -1.8,-32.95 z"
             id="path4160" />
          <path
             style="fill:#ffffff;fill-opacity:0.95"
             inkscape:connector-curvature="0"
             d="m 27,135 m 8,0 0,4.5 5,0.1 0,-4.5 z m -8,0 m 85,-0.7 -0.1,4.2 5,-0.1 -0.5,-4.1 z"
             id="path4162" />
          <path
             style="fill:#000000;fill-opacity:0.4"
             inkscape:connector-curvature="0"
             d="m 27,135 m 8,8 0,22.2 5,0.1 0,-22.3 z m -8,-8 m 85,7.3 -0.3,24.85 6.5,0.2 -1.8,-24.35 z"
             id="path4164" />
          <path
             style="fill:#2f4f4f;stroke:#000000;stroke-width:1"
             inkscape:connector-curvature="0"
             d="m 44,165.5 -5,23 15,2 3,-24.4 z"
             id="path4166" />
          <path
             style="fill:#000000;fill-opacity:0.4"
             inkscape:connector-curvature="0"
             d="m 44,165.5 -1.7,8 14.5,-5 0.3,-3"
             id="path4168" />
          <path
             style="fill:#2f4f4f;stroke:#000000;stroke-width:1"
             inkscape:connector-curvature="0"
             d="m 72,166.2 0,15 7,-0.1 1,-1 -2,-13.7 z"
             id="path4170" />
          <path
             style="fill:#000000;fill-opacity:0.4"
             inkscape:connector-curvature="0"
             d="m 72,166.2 0,5 6.5,-0.8 -0.5,-4 z"
             id="path4172" />
          <path
             style="fill:#696969;stroke:#000000;stroke-width:1"
             inkscape:connector-curvature="0"
             d="m 27,135 m 20,-0.4 0,-5 35,0 0,4.8 z"
             id="path4174" />
          <path
             style="fill:#000000;fill-opacity:0.4"
             inkscape:connector-curvature="0"
             d="m 27,135 m 20,-0.4 0,-5 35,0 0,4.8 z"
             id="path4176" />
          <path
             style="fill:#4682b4;stroke:#000000;stroke-width:1"
             inkscape:connector-curvature="0"
             d="m 27,135 m 20,-5.4 0,-7 35,0 0,7 z"
             id="path4178" />
          <path
             style="fill:#4682b4;stroke:#000000;stroke-width:1"
             inkscape:connector-curvature="0"
             d="m 27,135 m 20,-5.4 -0.5,1 -5,0.2 -0.4,-10 4.8,-0.2 1.2,0.7 z"
             id="path4180" />
          <path
             style="fill:#4682b4;stroke:#000000;stroke-width:1"
             inkscape:connector-curvature="0"
             d="m 27,135 m 55,-5.4 1,1 5,0.8 0.1,-11 -3.2,-0.3 -3,1 z"
             id="path4182" />
          <path
             style="fill:#ffffff;fill-opacity:0.95"
             inkscape:connector-curvature="0"
             d="m 41,121 4.8,-0.2 1.2,0.7 0,1 35,0 0,-1 3,-1 3.2,0.3 0,2 -3.2,-0.3 -3,1 0,1 -35,0 0,-1 -1.2,-0.7 -4.8,0 z"
             id="path4184" />
          <path
             style="fill:none;stroke:#000000;stroke-width:2"
             inkscape:connector-curvature="0"
             d="m 10,130 15,-1 2,6 0,30 -1,2 -14,0 z"
             stroke-linejoin="Round"
             id="path4186" />
          <path
             style="fill:none;stroke:#000000;stroke-width:2"
             inkscape:connector-curvature="0"
             d="m 27,135 110,-1 4,34 -114,-3 z"
             stroke-linejoin="Round"
             id="path4188" />
          <path
             style="fill:none;stroke:#000000;stroke-width:2"
             inkscape:connector-curvature="0"
             d="m 137,134 0,-5 20,0 2,48 -16,-1 -2,-8 z"
             id="path4190" />
          <path
             style="fill:none;stroke:#000000;stroke-width:1"
             inkscape:connector-curvature="0"
             d="m 27,135 m 8,0 0,30.2 5,0.1 0,-30.3 z"
             id="path4192" />
          <path
             style="fill:none;stroke:#000000;stroke-width:1"
             inkscape:connector-curvature="0"
             d="m 27,135 m 85,-0.7 -0.3,32.85 6.5,0.2 -1.8,-32.95 z"
             id="path4194" />
          <path
             style="fill:none;stroke:#000000;stroke-width:2"
             inkscape:connector-curvature="0"
             d="m 44,165.5 -5,23 15,2 3,-24.4 z"
             stroke-linejoin="Round"
             id="path4196" />
          <path
             style="fill:none;stroke:#000000;stroke-width:2"
             inkscape:connector-curvature="0"
             d="m 72,166.2 0,15 7,-0.1 1,-1 -2,-13.7 z"
             stroke-linejoin="Round"
             id="path4198" />
          <path
             style="fill:none;stroke:#000000;stroke-width:1.20000005"
             inkscape:connector-curvature="0"
             d="m 27,135 m 20,-5.4 0,-7 35,0 0,7 z"
             stroke-linejoin="Round"
             id="path4200" />
          <path
             style="fill:none;stroke:#000000;stroke-width:1.39999998"
             inkscape:connector-curvature="0"
             d="m 27,135 m 20,-5.4 -0.5,1 -5,0.2 -0.4,-10 4.8,-0.2 1.2,0.7 z"
             stroke-linejoin="Round"
             id="path4202" />
          <path
             style="fill:none;stroke:#000000;stroke-width:1.39999998"
             inkscape:connector-curvature="0"
             d="m 27,135 m 55,-5.4 1,1 5,0.8 0.1,-11 -3.2,-0.3 -3,1 z"
             stroke-linejoin="Round"
             id="path4204" />
          <path
             style="fill:none;stroke:#000000;stroke-width:2"
             inkscape:connector-curvature="0"
             d="m 56,173.5 8,0.3 a 5,5 0 0 0 2,-4 l 0,-3.5 m -6,-0.5 a 3,3 0 0 0 -0.2,2 3,3 0 0 0 1,2"
             stroke-linecap="Round"
             id="path4206" />
          <path
             style="fill:#8b4513;stroke:#000000"
             inkscape:connector-curvature="0"
             d="m 209,140 a 9,6 0 0 1 -9,6 9,6 0 0 1 -9,-6 9,6 0 0 1 9,-6 9,6 0 0 1 9,6"
             id="path4208" />
          <path
             style="fill:none;stroke:#000000"
             inkscape:connector-curvature="0"
             d="m 191,140 c 10,5 10,-5 18,0"
             id="path4210" />
          <path
             style="fill:none;fill-opacity:0.8;stroke:#000000"
             inkscape:connector-curvature="0"
             d="m 185,140 -15,0"
             id="path4212" />
          <path
             style="fill:none;fill-opacity:0.8;stroke:#000000"
             inkscape:connector-curvature="0"
             d="m 187,138 -15,0"
             id="path4214" />
          <path
             style="fill:none;fill-opacity:0.8;stroke:#000000"
             inkscape:connector-curvature="0"
             d="m 188,142 -15,0"
             id="path4216" />
          <path
             style="fill:#8b4513;stroke:#000000"
             inkscape:connector-curvature="0"
             d="m 259,145 a 9,6 0 0 1 -9,6 9,6 0 0 1 -9,-6 9,6 0 0 1 9,-6 9,6 0 0 1 9,6"
             id="path4218" />
          <path
             style="fill:none;stroke:#000000"
             inkscape:connector-curvature="0"
             d="m 241,145 c 10,5 10,-5 18,0"
             id="path4220" />
          <path
             style="fill:none;fill-opacity:0.8;stroke:#000000"
             inkscape:connector-curvature="0"
             d="m 235,145 -15,0"
             id="path4222" />
          <path
             style="fill:none;fill-opacity:0.8;stroke:#000000"
             inkscape:connector-curvature="0"
             d="m 237,143 -15,0"
             id="path4224" />
          <path
             style="fill:none;fill-opacity:0.8;stroke:#000000"
             inkscape:connector-curvature="0"
             d="m 238,147 -15,0"
             id="path4226" />
          <path
             style="fill:#8b4513;stroke:#000000"
             inkscape:connector-curvature="0"
             d="m 229,160 a 9,6 0 0 1 -9,6 9,6 0 0 1 -9,-6 9,6 0 0 1 9,-6 9,6 0 0 1 9,6"
             id="path4228" />
          <path
             style="fill:none;stroke:#000000"
             inkscape:connector-curvature="0"
             d="m 211,160 c 10,5 10,-5 18,0"
             id="path4230" />
          <path
             style="fill:none;fill-opacity:0.8;stroke:#000000"
             inkscape:connector-curvature="0"
             d="m 205,160 -15,0"
             id="path4232" />
          <path
             style="fill:none;fill-opacity:0.8;stroke:#000000"
             inkscape:connector-curvature="0"
             d="m 207,158 -15,0"
             id="path4234" />
          <path
             style="fill:none;fill-opacity:0.8;stroke:#000000"
             inkscape:connector-curvature="0"
             d="m 208,162 -15,0"
             id="path4236" />
        </svg>
      </g>
      <g
         id="g4293">
        <g
           style="font-style:normal;font-variant:normal;font-weight:900;font-stretch:normal;font-size:40px;line-height:125%;font-family:Iosevka;-inkscape-font-specification:'Iosevka, Heavy';text-align:start;letter-spacing:0px;word-spacing:0px;writing-mode:lr-tb;text-anchor:start;fill:#000000;fill-opacity:1;stroke:none;stroke-width:1px;stroke-linecap:butt;stroke-linejoin:miter;stroke-opacity:1"
           id="text5027">
          <path
             d="m 56.820846,959.14557 0,-29.4 8.32,0 q 1.6,0 3.12,0.56 1.52,0.56 2.6,1.76 1.12,1.2 1.6,2.76 0.48,1.56 0.48,3.16 0,1.48 -0.52,2.92 -0.52,1.4 -1.72,2.4 -0.28,0.24 -0.56,0.44 0.6,0.32 1.12,0.76 1.32,1.08 1.92,2.64 0.6,1.56 0.6,3.2 0,1.72 -0.56,3.4 -0.52,1.68 -1.76,2.96 -1.24,1.28 -2.92,1.88 -1.68,0.56 -3.4,0.56 l -8.32,0 z m 5.6,-5.04 2.72,0 q 0.92,0 1.68,-0.56 0.8,-0.56 1.08,-1.44 0.28,-0.92 0.28,-1.84 0,-0.92 -0.28,-1.8 -0.28,-0.92 -1.08,-1.48 -0.76,-0.6 -1.68,-0.6 l -2.72,0 0,7.72 z m 0,-12.76 2.72,0 q 0.72,0 1.28,-0.56 0.56,-0.56 0.72,-1.28 0.2,-0.72 0.2,-1.44 0,-0.76 -0.2,-1.48 -0.16,-0.72 -0.72,-1.24 -0.56,-0.56 -1.28,-0.56 l -2.72,0 0,6.56 z"
             style=""
             id="path4278" />
          <path
             d="m 85.420846,959.46557 q -1.8,0 -3.52,-0.56 -1.72,-0.6 -3,-1.92 -1.28,-1.36 -1.84,-3.08 -0.56,-1.76 -0.56,-3.56 l 0,-3.6 q 0,-1.76 0.52,-3.48 0.52,-1.72 1.72,-3.04 1.24,-1.36 2.92,-1.96 1.72,-0.64 3.48,-0.64 1.76,0 3.44,0.64 1.72,0.6 2.92,1.96 1.24,1.32 1.76,3.04 0.52,1.72 0.52,3.48 l 0,4.32 -11.64,0 q 0.08,0.64 0.28,1.24 0.32,0.96 1.16,1.56 0.88,0.56 1.84,0.56 0.72,0 1.4,-0.28 0.68,-0.28 1.12,-0.84 0.48,-0.56 0.68,-1.24 l 5.2,1.88 q -0.6,1.72 -1.88,3.04 -1.24,1.32 -3,1.92 -1.72,0.56 -3.52,0.56 z m -3.28,-13.44 6,0 q -0.08,-0.6 -0.24,-1.16 -0.24,-0.92 -1.04,-1.56 -0.76,-0.64 -1.72,-0.64 -0.96,0 -1.76,0.64 -0.76,0.64 -1,1.56 -0.16,0.56 -0.24,1.16 z"
             style=""
             id="path4280" />
          <path
             d="m 102.70085,959.46557 q -1.28,0 -2.52,-0.44 -1.240004,-0.48 -2.120004,-1.48 -0.84,-1.04 -1.2,-2.28 -0.36,-1.24 -0.36,-2.56 0,-1.36 0.48,-2.64 0.48,-1.28 1.48,-2.2 1,-0.96 2.240004,-1.48 1.24,-0.56 2.56,-0.76 1.36,-0.24 2.72,-0.24 l 1.88,0 0,-0.48 q 0,-0.68 -0.44,-1.24 -0.4,-0.6 -1.08,-0.8 -0.64,-0.2 -1.32,-0.2 -0.72,0 -1.4,0.24 -0.68,0.2 -1.16,0.76 -0.44,0.56 -0.52,1.28 l -5.200004,-1.8 q 0.4,-1.76 1.68,-3.08 1.28,-1.36 3.040004,-1.88 1.76,-0.56 3.56,-0.56 1.24,0 2.48,0.24 1.24,0.24 2.36,0.84 1.12,0.6 1.96,1.56 0.88,0.96 1.24,2.2 0.4,1.2 0.4,2.44 l 0,14.24 -5.6,0 0,-2.32 -0.04,0.08 q -0.88,1.24 -2.28,1.92 -1.36,0.64 -2.84,0.64 z m 2,-5.04 q 0.88,0 1.64,-0.36 0.8,-0.4 1.16,-1.2 0.36,-0.8 0.36,-1.64 l 0,-0.8 -1.88,0 q -0.84,0 -1.68,0.16 -0.8,0.16 -1.52,0.72 -0.68,0.52 -0.68,1.36 0,0.56 0.44,1.04 0.44,0.44 1,0.6 0.6,0.12 1.16,0.12 z"
             style=""
             id="path4282" />
          <path
             d="m 116.82085,959.14557 0,-21.2 5.6,0 0,2.44 q 0.24,-0.36 0.48,-0.68 0.76,-1 1.88,-1.52 1.16,-0.56 2.4,-0.56 1.24,0 2.4,0.56 1.16,0.52 1.92,1.52 0.76,1 1.16,2.16 0.44,1.16 0.6,2.4 0.2,1.24 0.2,2.48 l 0,12.4 -5.6,0 0,-12.4 q 0,-0.92 -0.24,-1.8 -0.2,-0.92 -0.88,-1.6 -0.68,-0.68 -1.6,-0.68 -0.92,0 -1.6,0.68 -0.68,0.68 -0.92,1.6 -0.2,0.88 -0.2,1.8 l 0,12.4 -5.6,0 z"
             style=""
             id="path4284" />
          <path
             d="m 136.82085,959.14557 0,-5.04 9.92,-11.12 -9.92,0 0,-5.04 16.64,0 0,5.04 -9.92,11.12 9.92,0 0,5.04 -16.64,0 z"
             style=""
             id="path4286" />
        </g>
        <g
           style="font-style:normal;font-variant:normal;font-weight:900;font-stretch:normal;font-size:40px;line-height:125%;font-family:Iosevka;-inkscape-font-specification:'Iosevka, Heavy';text-align:start;letter-spacing:0px;word-spacing:0px;writing-mode:lr-tb;text-anchor:start;fill:#000000;fill-opacity:1;stroke:none;stroke-width:1px;stroke-linecap:butt;stroke-linejoin:miter;stroke-opacity:1"
           id="text5031">
          <path
             d="m 206.53916,959.14557 0,-29.4 5.6,0 0,15.44 0.44,-0.44 q 0.6,-0.6 1.16,-1.2 0.56,-0.64 1.08,-1.28 0.56,-0.64 1.04,-1.32 0.52,-0.68 0.96,-1.4 0.48,-0.76 0.48,-1.6 l 5.88,0 q 0,1 -0.56,1.88 -0.56,0.88 -1.16,1.68 -0.56,0.76 -1.2,1.52 -0.64,0.76 -1.36,1.48 -0.68,0.72 -1.36,1.44 l -0.24,0.2 q 6.2,9.64 6.2,13 l -5.6,0 q 0,-2.68 -3.84,-10 -0.48,0.4 -0.96,0.8 -0.48,0.4 -0.96,0.8 l 0,8.4 -5.6,0 z"
             style=""
             id="path4289" />
          <path
             d="m 232.41916,959.46557 q -1.28,0 -2.52,-0.44 -1.24,-0.48 -2.12,-1.48 -0.84,-1.04 -1.2,-2.28 -0.36,-1.24 -0.36,-2.56 0,-1.36 0.48,-2.64 0.48,-1.28 1.48,-2.2 1,-0.96 2.24,-1.48 1.24,-0.56 2.56,-0.76 1.36,-0.24 2.72,-0.24 l 1.88,0 0,-0.48 q 0,-0.68 -0.44,-1.24 -0.4,-0.6 -1.08,-0.8 -0.64,-0.2 -1.32,-0.2 -0.72,0 -1.4,0.24 -0.68,0.2 -1.16,0.76 -0.44,0.56 -0.52,1.28 l -5.2,-1.8 q 0.4,-1.76 1.68,-3.08 1.28,-1.36 3.04,-1.88 1.76,-0.56 3.56,-0.56 1.24,0 2.48,0.24 1.24,0.24 2.36,0.84 1.12,0.6 1.96,1.56 0.88,0.96 1.24,2.2 0.4,1.2 0.4,2.44 l 0,14.24 -5.6,0 0,-2.32 -0.04,0.08 q -0.88,1.24 -2.28,1.92 -1.36,0.64 -2.84,0.64 z m 2,-5.04 q 0.88,0 1.64,-0.36 0.8,-0.4 1.16,-1.2 0.36,-0.8 0.36,-1.64 l 0,-0.8 -1.88,0 q -0.84,0 -1.68,0.16 -0.8,0.16 -1.52,0.72 -0.68,0.52 -0.68,1.36 0,0.56 0.44,1.04 0.44,0.44 1,0.6 0.6,0.12 1.16,0.12 z"
             style=""
             id="path4291" />
        </g>
        <g
           transform="matrix(0,1.577646,-1.577646,0,396.49405,550.19407)"
           id="g5134">
          <path
             style="fill:#8b4513;stroke:#000000"
             inkscape:connector-curvature="0"
             d="m 259,145 a 9,6 0 0 1 -9,6 9,6 0 0 1 -9,-6 9,6 0 0 1 9,-6 9,6 0 0 1 9,6"
             id="path4218-7" />
          <path
             style="fill:none;stroke:#000000"
             inkscape:connector-curvature="0"
             d="m 241,145 c 10,5 10,-5 18,0"
             id="path4220-9" />
        </g>
        <g
           id="g5165"
           transform="matrix(0,1.577646,-1.577646,0,421.02328,550.19407)">
          <path
             id="path5167"
             d="m 259,145 a 9,6 0 0 1 -9,6 9,6 0 0 1 -9,-6 9,6 0 0 1 9,-6 9,6 0 0 1 9,6"
             inkscape:connector-curvature="0"
             style="fill:#8b4513;stroke:#000000" />
          <path
             id="path5169"
             d="m 241,145 c 10,5 10,-5 18,0"
             inkscape:connector-curvature="0"
             style="fill:none;stroke:#000000" />
        </g>
      </g>
    </g>
  </g>
</svg>
